HIERARCHY
ROOT hip
{
  OFFSET 0 0 0
  CHANNELS 6 Xposition Yposition Zposition Zrotation Yrotation Xrotation
  JOINT abdomen
  {
    OFFSET 0 20.6881 -0.73152
    CHANNELS 3 Zrotation Xrotation Yrotation
    JOINT chest
    {
      OFFSET 0 11.7043 -0.48768
      CHANNELS 3 Zrotation Xrotation Yrotation
      JOINT neck
      {
        OFFSET 0 22.1894 -2.19456
        CHANNELS 3 Zrotation Xrotation Yrotation
        JOINT head
        {
          OFFSET -0.24384 7.07133 1.2192
          CHANNELS 3 Zrotation Xrotation Yrotation
          JOINT leftEye
          {
            OFFSET 4.14528 8.04674 8.04672
            CHANNELS 3 Zrotation Xrotation Yrotation
            End Site
            {
              OFFSET 1 0 0
            }
          }
          JOINT rightEye
          {
            OFFSET -3.6576 8.04674 8.04672
            CHANNELS 3 Zrotation Xrotation Yrotation
            End Site
            {
              OFFSET 1 0 0
            }
          }
        }
      }
      JOINT rCollar
      {
        OFFSET -2.68224 19.2634 -4.8768
        CHANNELS 3 Zrotation Xrotation Yrotation
        JOINT rShldr
        {
          OFFSET -8.77824 -1.95073 1.46304
          CHANNELS 3 Zrotation Xrotation Yrotation
          JOINT rForeArm
          {
            OFFSET -28.1742 -1.7115 0.48768
            CHANNELS 3 Zrotation Xrotation Yrotation
            JOINT rHand
            {
              OFFSET -22.5879 0.773209 7.07136
              CHANNELS 3 Zrotation Xrotation Yrotation
              JOINT rThumb1
              {
                OFFSET -1.2192 -0.487915 3.41376
                CHANNELS 3 Zrotation Xrotation Yrotation
                JOINT rThumb2
                {
                  OFFSET -3.37035 -0.52449 3.41376
                  CHANNELS 3 Zrotation Xrotation Yrotation
                  End Site
                  {
                    OFFSET -1.78271 -1.18214 1.43049
                  }
                }
              }
              JOINT rIndex1
              {
                OFFSET -7.75947 0.938293 5.60832
                CHANNELS 3 Zrotation Xrotation Yrotation
                JOINT rIndex2
                {
                  OFFSET -2.54057 -0.884171 1.56538
                  CHANNELS 3 Zrotation Xrotation Yrotation
                  End Site
                  {
                    OFFSET -1.62519 -0.234802 1.16502
                  }
                }
              }
              JOINT rMid1
              {
                OFFSET -8.24714 1.18213 3.41376
                CHANNELS 3 Zrotation Xrotation Yrotation
                JOINT rMid2
                {
                  OFFSET -3.10165 -0.590103 1.0647
                  CHANNELS 3 Zrotation Xrotation Yrotation
                  End Site
                  {
                    OFFSET -2.48547 -0.328903 0.83742
                  }
                }
              }
              JOINT rRing1
              {
                OFFSET -8.82822 0.546677 1.51678
                CHANNELS 3 Zrotation Xrotation Yrotation
                JOINT rRing2
                {
                  OFFSET -2.60934 -0.819778 -0.0198488
                  CHANNELS 3 Zrotation Xrotation Yrotation
                  End Site
                  {
                    OFFSET -2.33842 -0.294052 0.168128
                  }
                }
              }
              JOINT rPinky1
              {
                OFFSET -8.27202 -0.0477905 -0.4584
                CHANNELS 3 Zrotation Xrotation Yrotation
                JOINT rPinky2
                {
                  OFFSET -1.82734 -0.647385 -0.700984
                  CHANNELS 3 Zrotation Xrotation Yrotation
                  End Site
                  {
                    OFFSET -1.69225 -0.51767 -0.607171
                  }
                }
              }
            }
          }
        }
      }
      JOINT lCollar
      {
        OFFSET 2.68224 19.2634 -4.8768
        CHANNELS 3 Zrotation Xrotation Yrotation
        JOINT lShldr
        {
          OFFSET 8.77824 -1.95073 1.46304
          CHANNELS 3 Zrotation Xrotation Yrotation
          JOINT lForeArm
          {
            OFFSET 28.1742 -1.7115 0.48768
            CHANNELS 3 Zrotation Xrotation Yrotation
            JOINT lHand
            {
              OFFSET 22.5879 0.773209 7.07136
              CHANNELS 3 Zrotation Xrotation Yrotation
              JOINT lThumb1
              {
                OFFSET 1.2192 -0.487915 3.41376
                CHANNELS 3 Zrotation Xrotation Yrotation
                JOINT lThumb2
                {
                  OFFSET 3.37035 -0.52449 3.41376
                  CHANNELS 3 Zrotation Xrotation Yrotation
                  End Site
                  {
                    OFFSET 1.78271 -1.18214 1.43049
                  }
                }
              }
              JOINT lIndex1
              {
                OFFSET 7.75947 0.938293 5.60832
                CHANNELS 3 Zrotation Xrotation Yrotation
                JOINT lIndex2
                {
                  OFFSET 2.54057 -0.884171 1.56538
                  CHANNELS 3 Zrotation Xrotation Yrotation
                  End Site
                  {
                    OFFSET 1.62519 -0.234802 1.16502
                  }
                }
              }
              JOINT lMid1
              {
                OFFSET 8.24714 1.18213 3.41376
                CHANNELS 3 Zrotation Xrotation Yrotation
                JOINT lMid2
                {
                  OFFSET 3.10165 -0.590103 1.0647
                  CHANNELS 3 Zrotation Xrotation Yrotation
                  End Site
                  {
                    OFFSET 2.48547 -0.328903 0.83742
                  }
                }
              }
              JOINT lRing1
              {
                OFFSET 8.82822 0.546677 1.51678
                CHANNELS 3 Zrotation Xrotation Yrotation
                JOINT lRing2
                {
                  OFFSET 2.60934 -0.819778 -0.0198488
                  CHANNELS 3 Zrotation Xrotation Yrotation
                  End Site
                  {
                    OFFSET 2.33842 -0.294052 0.168128
                  }
                }
              }
              JOINT lPinky1
              {
                OFFSET 8.27202 -0.0477905 -0.4584
                CHANNELS 3 Zrotation Xrotation Yrotation
                JOINT lPinky2
                {
                  OFFSET 1.82734 -0.647385 -0.700984
                  CHANNELS 3 Zrotation Xrotation Yrotation
                  End Site
                  {
                    OFFSET 1.69225 -0.51767 -0.607171
                  }
                }
              }
            }
          }
        }
      }
    }
  }
  JOINT rButtock
  {
    OFFSET -8.77824 4.35084 1.2192
    CHANNELS 3 Zrotation Xrotation Yrotation
    JOINT rThigh
    {
      OFFSET 0 -1.70687 -2.19456
      CHANNELS 3 Zrotation Xrotation Yrotation
      JOINT rShin
      {
        OFFSET 0 -36.8199 0.73152
        CHANNELS 3 Zrotation Xrotation Yrotation
        JOINT rFoot
        {
          OFFSET 0.73152 -45.1104 -5.12064
          CHANNELS 3 Zrotation Xrotation Yrotation
          End Site
          {
            OFFSET -1.1221 -3.69964 12.103
          }
        }
      }
    }
  }
  JOINT lButtock
  {
    OFFSET 8.77824 4.35084 1.2192
    CHANNELS 3 Zrotation Xrotation Yrotation
    JOINT lThigh
    {
      OFFSET 0 -1.70687 -2.19456
      CHANNELS 3 Zrotation Xrotation Yrotation
      JOINT lShin
      {
        OFFSET 0 -36.8199 0.73152
        CHANNELS 3 Zrotation Xrotation Yrotation
        JOINT lFoot
        {
          OFFSET -0.73152 -45.1104 -5.12064
          CHANNELS 3 Zrotation Xrotation Yrotation
          End Site
          {
            OFFSET 1.1221 -3.69964 12.103
          }
        }
      }
    }
  }
}
MOTION
Frames:	4
Frame Time:	0.00833333
-0.399736 84.9173 -143.213 0.0 0.0 0.0 -0.140625 -0.000295014 -0.00400526 -0.0387669 -0.000394548 -0.00671564 2.27358e-15 -7.95139e-16 -1.3977e-17 6.85807e-15 3.18055e-15 -4.50372e-17 -0.0 0.0 0.0 -0.0 0.0 0.0 1.19143e-15 7.76503e-19 1.98785e-16 2.58177e-14 1.80149e-16 7.95139e-16 4.11932e-13 -1.19271e-13 9.54166e-15 4.70487e-12 1.33459e-13 -4.45278e-14 1.10965e-11 2.50852e-14 -6.36111e-14 1.91628e-11 4.13472e-14 -1.08934e-13 1.11021e-11 2.70347e-14 -7.31528e-14 7.73091 5.47488 0.417314 1.10967e-11 2.50469e-14 -6.04305e-14 2.90554 0.965183 0.102902 1.11039e-11 2.52457e-14 -5.88403e-14 10.2786 0.731801 0.0259123 1.1096e-11 2.66371e-14 -5.08889e-14 2.22167 -0.733487 -0.20892 1.09467e-15 7.76503e-19 -1.98785e-16 2.19065e-14 2.79541e-16 -7.95139e-16 4.11882e-13 1.25632e-13 -1.59028e-14 4.7032e-12 -1.14276e-13 3.18055e-15 1.10987e-11 1.81448e-14 -6.04305e-14 1.91756e-11 2.54444e-14 -8.66701e-14 1.10938e-11 1.90833e-14 -4.13472e-14 -7.73091 5.47488 -0.417314 1.10994e-11 1.81888e-14 -5.725e-14 -2.90554 0.965183 -0.102902 1.1089e-11 1.85864e-14 -5.725e-14 -10.2786 0.731801 -0.0259123 1.11027e-11 2.06736e-14 -6.67917e-14 -2.22167 -0.733487 0.20892 -2.03217e-16 0.0 -3.88251e-19 0.415455 -2.89234 -0.0363695 -0.00657581 -0.313961 -0.0578456 -0.521688 3.20536 0.125419 2.03217e-16 0.0 3.88251e-19 -0.629349 -3.43714 0.049731 0.00497787 0.672915 0.0432303 0.523141 2.76331 -0.11651
3.47683 83.3482 -146.386 0.7819 47.9139 3.4635 0.949187 0.503786 5.4179 -0.438679 -0.445873 1.52966 3.488 5.25685 5.38508 -5.30414 -5.75221 10.1963 -0.0 0.0 0.0 -0.0 0.0 0.0 2.194e-14 1.9587e-13 -2.19746e-13 19.0108 2.62809 -0.334674 -7.88112 -4.81709 10.6754 0.0544042 -5.17781 -0.717003 5.20671e-10 3.67663e-09 -1.37621e-09 9.23122e-10 6.36109e-09 -2.37968e-09 5.20676e-10 3.67663e-09 -1.37622e-09 7.73091 5.47488 0.417314 5.20671e-10 3.67663e-09 -1.37621e-09 2.90554 0.965183 0.102902 5.20677e-10 3.67662e-09 -1.37621e-09 10.2786 0.731801 0.0259123 5.20669e-10 3.67663e-09 -1.3762e-09 2.22167 -0.733487 -0.20892 2.18364e-14 1.9587e-13 -2.20123e-13 -20.0398 -1.90893 1.38389 2.51361 -0.933287 -4.12366 -0.00653253 1.79944 -0.25245 6.35886e-10 -4.13554e-09 -1.54113e-09 1.09024e-09 -7.16048e-09 -2.67085e-09 6.35881e-10 -4.13554e-09 -1.54112e-09 -7.73091 5.47488 -0.417314 6.35887e-10 -4.13554e-09 -1.54113e-09 -2.90554 0.965183 -0.102902 6.35878e-10 -4.13554e-09 -1.54113e-09 -10.2786 0.731801 -0.0259123 6.3589e-10 -4.13554e-09 -1.54114e-09 -2.22167 -0.733487 0.20892 -2.03217e-16 0.0 -3.88251e-19 -0.765694 -2.36115 -6.03986 0.0363196 6.26381 0.135912 -2.32441 -2.40253 -13.1541 2.03217e-16 0.0 3.88251e-19 0.991034 -8.93615 -4.55864 0.0125473 7.63784 -0.0301332 0.268956 0.510538 -2.41413
3.51791 83.3697 -146.295 0.7698 47.9935 3.2266 2.00136 1.01718 11.1359 -0.831584 -0.912872 3.1499 6.08429 10.6588 11.2294 -8.69258 -11.2206 21.2999 -0.0 0.0 0.0 -0.0 0.0 0.0 4.5317e-14 4.1597e-13 -4.67026e-13 39.1356 5.393 -0.690309 -14.2699 -9.3315 22.1723 -0.0312225 -10.6478 -1.49457 1.08651e-09 7.77002e-09 -2.90612e-09 1.92691e-09 1.34433e-08 -5.02513e-09 1.08651e-09 7.77002e-09 -2.90613e-09 7.73091 5.47488 0.417314 1.08651e-09 7.77002e-09 -2.90612e-09 2.90554 0.965183 0.102902 1.08651e-09 7.77001e-09 -2.90612e-09 10.2786 0.731801 0.0259123 1.0865e-09 7.77002e-09 -2.90611e-09 2.22167 -0.733487 -0.20892 4.52044e-14 4.1597e-13 -4.67383e-13 -41.1265 -3.89815 2.83454 5.03043 -1.9065 -8.49515 0.00383258 3.684 -0.517688 1.34152e-09 -8.74341e-09 -3.2513e-09 2.30009e-09 -1.51388e-08 -5.63475e-09 1.34151e-09 -8.74341e-09 -3.25128e-09 -7.73091 5.47488 -0.417314 1.34152e-09 -8.74341e-09 -3.25129e-09 -2.90554 0.965183 -0.102902 1.34151e-09 -8.74341e-09 -3.2513e-09 -10.2786 0.731801 -0.0259123 1.34152e-09 -8.7434e-09 -3.25131e-09 -2.22167 -0.733487 0.20892 -2.03217e-16 0.0 -3.88251e-19 -1.89564 -1.78824 -12.3875 0.0322034 13.2199 0.348414 -6.97188 -7.52702 -27.4256 2.03217e-16 0.0 3.88251e-19 1.71392 -14.6129 -9.63306 0.0404802 15.0002 -0.110852 -0.196709 -1.8618 -4.85237
3.56505 83.3876 -146.298 1.0214 47.9162 3.255 2.84679 1.45796 16.2665 -1.1669 -1.33299 4.60353 7.45314 15.2045 16.6874 -9.91944 -15.054 31.6369 -0.0 0.0 0.0 -0.0 0.0 0.0 6.34371e-14 5.87609e-13 -6.59637e-13 57.1254 7.88318 -1.01254 -18.4662 -12.4432 32.774 -0.237984 -15.5235 -2.22338 1.53982e-09 1.10298e-08 -4.12851e-09 2.73104e-09 1.90832e-08 -7.13882e-09 1.53982e-09 1.10298e-08 -4.12853e-09 7.73091 5.47488 0.417314 1.53982e-09 1.10298e-08 -4.12852e-09 2.90554 0.965183 0.102902 1.53982e-09 1.10298e-08 -4.12852e-09 10.2786 0.731801 0.0259123 1.53981e-09 1.10298e-08 -4.12851e-09 2.22167 -0.733487 -0.20892 6.33199e-14 5.87609e-13 -6.5997e-13 -59.8418 -5.71341 4.17011 7.14089 -2.74191 -12.3837 0.0281521 5.39789 -0.760348 1.88546e-09 -1.24067e-08 -4.62328e-09 3.23236e-09 -2.14815e-08 -8.01236e-09 1.88546e-09 -1.24067e-08 -4.62326e-09 -7.73091 5.47488 -0.417314 1.88546e-09 -1.24067e-08 -4.62327e-09 -2.90554 0.965183 -0.102902 1.88546e-09 -1.24067e-08 -4.62328e-09 -10.2786 0.731801 -0.0259123 1.88547e-09 -1.24066e-08 -4.62329e-09 -2.22167 -0.733487 0.20892 -2.03217e-16 0.0 -3.88251e-19 -2.79671 -1.27253 -18.0361 -0.0177018 19.4186 0.552415 -13.1807 -10.5882 -40.5056 2.03217e-16 0.0 3.88251e-19 1.46692 -19.4329 -14.4483 0.0842449 21.5676 -0.189307 -0.780881 -3.96377 -7.02625
